<?xml version="1.0" encoding="UTF-8" standalone="no"?>
<!-- Created with Inkscape (http://www.inkscape.org/) -->

<svg
   width="300"
   height="300"
   viewBox="0 0 79.374998 79.375"
   version="1.1"
   id="svg5"
   xml:space="preserve"
   inkscape:version="1.2.2 (732a01da63, 2022-12-09, custom)"
   sodipodi:docname="logo.svg"
   xmlns:inkscape="http://www.inkscape.org/namespaces/inkscape"
   xmlns:sodipodi="http://sodipodi.sourceforge.net/DTD/sodipodi-0.dtd"
   xmlns:xlink="http://www.w3.org/1999/xlink"
   xmlns="http://www.w3.org/2000/svg"
   xmlns:svg="http://www.w3.org/2000/svg"><sodipodi:namedview
     id="namedview7"
     pagecolor="#ffffff"
     bordercolor="#000000"
     borderopacity="0.25"
     inkscape:showpageshadow="2"
     inkscape:pageopacity="0.0"
     inkscape:pagecheckerboard="0"
     inkscape:deskcolor="#d1d1d1"
     inkscape:document-units="mm"
     showgrid="false"
     inkscape:zoom="0.54163861"
     inkscape:cx="154.16183"
     inkscape:cy="150.46933"
     inkscape:window-width="1600"
     inkscape:window-height="836"
     inkscape:window-x="0"
     inkscape:window-y="0"
     inkscape:window-maximized="1"
     inkscape:current-layer="layer1" /><defs
     id="defs2"><linearGradient
       inkscape:collect="always"
       id="linearGradient12235"><stop
         style="stop-color:#6e48c4;stop-opacity:1"
         offset="0"
         id="stop12231" /><stop
         style="stop-color:#281d50;stop-opacity:1"
         offset="1"
         id="stop12233" /></linearGradient><clipPath
       clipPathUnits="userSpaceOnUse"
       id="clipPath11899"><use
         x="0"
         y="0"
         xlink:href="#g11895"
         id="use11901" /></clipPath><radialGradient
       inkscape:collect="always"
       xlink:href="#linearGradient12235"
       id="radialGradient12237"
       cx="18.849676"
       cy="25.188557"
       fx="18.849676"
       fy="25.188557"
       r="31.566837"
       gradientTransform="matrix(1.0832581,0.89206115,-0.63569208,0.77194274,14.442777,-11.07063)"
       gradientUnits="userSpaceOnUse" /><radialGradient
       inkscape:collect="always"
       xlink:href="#linearGradient12235"
       id="radialGradient16167"
       gradientUnits="userSpaceOnUse"
       gradientTransform="matrix(0.64560203,0.51708356,-0.5717691,0.71388023,23.659682,-0.1634983)"
       cx="25.911789"
       cy="25.500916"
       fx="25.911789"
       fy="25.500916"
       r="31.566837" /></defs><g
     inkscape:label="Layer 1"
     inkscape:groupmode="layer"
     id="layer1"><g
       id="g11897"
       clip-path="url(#clipPath11899)"><g
         inkscape:label="Clip"
         id="g11895"
         style="fill-opacity:1;fill:url(#radialGradient12237)"><ellipse
           style="fill:url(#radialGradient16167);stroke:none;stroke-width:3.01216;paint-order:stroke markers fill;fill-opacity:1;opacity:1"
           id="path234"
           cx="39.6875"
           cy="39.6875"
           rx="31.566837"
           ry="31.566835" /></g><g
         id="path9502"
         style="stroke:#915eff;stroke-opacity:1;fill:none;fill-opacity:0;stroke-width:0.68791667;stroke-dasharray:none;paint-order:markers fill stroke"><path
           style="color:#000000;fill:none;paint-order:markers fill stroke;stroke:#915eff;stroke-opacity:1;fill-opacity:0;stroke-width:0.68791667;stroke-dasharray:none"
           d="m 23.861328,10.4375 c -1.985188,8.175469 -1.416102,21.538473 2.351563,33.880859 3.767664,12.342386 10.771243,23.708652 21.892578,27.453125 l 0.421875,-1.253906 C 38.017892,66.979121 31.176442,56.053926 27.476562,43.933594 23.776683,31.813261 23.254312,18.542406 25.146484,10.75 Z"
           id="path9527" /><path
           style="color:#000000;fill:none;fill-opacity:0;stroke-width:0.68791667;paint-order:markers fill stroke;stroke:#915eff;stroke-opacity:1;stroke-dasharray:none"
           d="m 24.504484,10.593581 c -3.877364,15.967891 2.181018,53.267962 23.811826,60.5509"
           id="path9529" /></g><g
         id="path9504"
         inkscape:transform-center-x="-8.686554"
         inkscape:transform-center-y="-31.738618"
         style="stroke:#915eff;stroke-opacity:1;fill:none;fill-opacity:0;stroke-width:0.68791667;stroke-dasharray:none;paint-order:markers fill stroke"><path
           style="color:#000000;fill:none;paint-order:markers fill stroke;stroke:#915eff;stroke-opacity:1;fill-opacity:0;stroke-width:0.68791667;stroke-dasharray:none"
           d="m 43.972656,7.0117187 -1.08789,0.7519532 C 47.757194,14.818314 49.767059,28.762439 47.9375,41.699219 46.107941,54.635998 40.502403,66.467762 30.701172,69.820312 l 0.427734,1.251954 C 41.677105,67.464211 47.380004,55.07985 49.246094,41.884766 51.112183,28.689681 49.203594,14.585435 43.972656,7.0117187 Z"
           id="path9533" /><path
           style="color:#000000;fill:none;fill-opacity:0;stroke-width:0.68791667;paint-order:markers fill stroke;stroke:#915eff;stroke-opacity:1;stroke-dasharray:none"
           d="M 43.429011,7.3873781 C 53.532388,22.015751 51.264119,63.485039 30.914669,70.445651"
           id="path9535" /></g><g
         id="path9506"
         inkscape:transform-center-x="-8.686554"
         inkscape:transform-center-y="-31.738618"
         style="stroke:#915eff;stroke-opacity:1;fill:none;fill-opacity:0;stroke-width:0.68791667;stroke-dasharray:none;paint-order:markers fill stroke"><path
           style="color:#000000;fill:none;paint-order:markers fill stroke;stroke:#915eff;stroke-opacity:1;fill-opacity:0;stroke-width:0.68791667;stroke-dasharray:none"
           d="M 70.568359,33.580078 C 50.534438,51.817401 20.401384,50.211117 8.3066406,34.792969 L 7.265625,35.609375 c 12.719722,16.214859 43.644179,17.655593 64.193359,-1.050781 z"
           id="path9521" /><path
           style="color:#000000;fill:none;fill-opacity:0;stroke-width:0.68791667;paint-order:markers fill stroke;stroke:#915eff;stroke-opacity:1;stroke-dasharray:none"
           d="M 71.014206,34.069541 C 50.722635,52.541408 20.19273,51.017176 7.7854849,35.200657"
           id="path9523" /></g><g
         id="path9510"
         inkscape:transform-center-x="-8.686554"
         inkscape:transform-center-y="-31.738618"
         style="stroke:#915eff;fill:none;fill-opacity:0;stroke-width:0.68791667;paint-order:markers fill stroke"><path
           style="color:#000000;fill:#915eff;fill-opacity:1;stroke:none;-inkscape-stroke:none"
           d="M 62.269531,14.902344 C 53.834963,14.813003 41.442534,18.737571 30.763672,25.662109 20.084294,32.586981 11.088276,42.591121 10.113281,54.810547 l -0.02734,0.34375 2.005859,0.160156 0.02734,-0.34375 c 0.903427,-11.322489 9.37133,-20.897544 19.740234,-27.621094 10.368394,-6.723219 22.613989,-10.51985 30.388672,-10.4375 l 0.34375,0.0039 0.02148,-2.009766 z m -0.351562,0.720703 -0.0059,0.634765 c -8.009013,0.01535 -20.08593,3.807695 -30.427734,10.513672 -10.370571,6.724631 -18.92492,16.326336 -19.996094,27.802735 l -0.630859,-0.05078 C 11.95052,42.765948 20.668657,33.029348 31.138672,26.240234 41.579788,19.469859 53.70736,15.63543 61.917969,15.623047 Z"
           id="path9515" /><path
           style="color:#000000;fill:#915eff;fill-opacity:1;stroke:none;-inkscape-stroke:none"
           d="M 62.261719,15.5625 C 54.042422,15.47544 41.702405,19.358048 31.125,26.216797 20.547595,33.075546 11.724949,42.938169 10.773438,54.863281 l 0.685546,0.05469 C 12.386012,43.299701 21.02685,33.584802 31.498047,26.794922 41.969244,20.005042 54.262275,16.167284 62.255859,16.251953 Z"
           id="path9517" /></g><circle
         style="opacity:1;fill:#915eff;fill-opacity:1;stroke:none;stroke-width:0.706241;stroke-dasharray:none;stroke-opacity:1;paint-order:stroke markers fill"
         id="path11813"
         cx="47.863529"
         cy="46.476337"
         r="5.5492425" /><circle
         style="opacity:1;fill:#915eff;fill-opacity:1;stroke:none;stroke-width:0.471172;stroke-dasharray:none;stroke-opacity:1;paint-order:stroke markers fill"
         id="circle11815"
         cx="38.996159"
         cy="65.157295"
         r="3.7021999" /><circle
         style="opacity:1;fill:#915eff;fill-opacity:1;stroke:none;stroke-width:0.292541;stroke-dasharray:none;stroke-opacity:1;paint-order:stroke markers fill"
         id="circle11817"
         cx="27.143963"
         cy="46.486237"
         r="2.298619" /><circle
         style="opacity:1;fill:#915eff;fill-opacity:1;stroke:none;stroke-width:0.292541;stroke-dasharray:none;stroke-opacity:1;paint-order:stroke markers fill"
         id="circle11819"
         cx="15.806648"
         cy="42.281986"
         r="2.298619" /><circle
         style="opacity:1;fill:#915eff;fill-opacity:1;stroke:none;stroke-width:0.594795;stroke-dasharray:none;stroke-opacity:1;paint-order:stroke markers fill"
         id="circle11821"
         cx="24.117582"
         cy="32.122047"
         r="4.673563" /><circle
         style="opacity:1;fill:#915eff;fill-opacity:1;stroke:none;stroke-width:0.441449;stroke-dasharray:none;stroke-opacity:1;paint-order:stroke markers fill"
         id="circle11823"
         cx="47.787144"
         cy="18.666477"
         r="3.4686542" /><g
         id="g16818"
         style="stroke:#915eff;stroke-opacity:1;fill:none;fill-opacity:0;stroke-width:0.68791667;stroke-dasharray:none;paint-order:markers fill stroke"><path
           style="color:#000000;fill:none;paint-order:markers fill stroke;stroke:#915eff;stroke-opacity:1;fill-opacity:0;stroke-width:0.68791667;stroke-dasharray:none"
           d="m 23.861328,10.4375 c -1.985188,8.175469 -1.416102,21.538473 2.351563,33.880859 3.767664,12.342386 10.771243,23.708652 21.892578,27.453125 l 0.421875,-1.253906 C 38.017892,66.979121 31.176442,56.053926 27.476562,43.933594 23.776683,31.813261 23.254312,18.542406 25.146484,10.75 Z"
           id="path16814" /><path
           style="color:#000000;fill:none;fill-opacity:0;stroke-width:0.68791667;paint-order:markers fill stroke;stroke:#915eff;stroke-opacity:1;stroke-dasharray:none"
           d="m 24.504484,10.593581 c -3.877364,15.967891 2.181018,53.267962 23.811826,60.5509"
           id="path16816" /></g><g
         id="g16824"
         inkscape:transform-center-x="-8.686554"
         inkscape:transform-center-y="-31.738618"
         style="stroke:#915eff;stroke-opacity:1;fill:none;fill-opacity:0;stroke-width:0.68791667;stroke-dasharray:none;paint-order:markers fill stroke"><path
           style="color:#000000;fill:none;paint-order:markers fill stroke;stroke:#915eff;stroke-opacity:1;fill-opacity:0;stroke-width:0.68791667;stroke-dasharray:none"
           d="m 43.972656,7.0117187 -1.08789,0.7519532 C 47.757194,14.818314 49.767059,28.762439 47.9375,41.699219 46.107941,54.635998 40.502403,66.467762 30.701172,69.820312 l 0.427734,1.251954 C 41.677105,67.464211 47.380004,55.07985 49.246094,41.884766 51.112183,28.689681 49.203594,14.585435 43.972656,7.0117187 Z"
           id="path16820" /><path
           style="color:#000000;fill:none;fill-opacity:0;stroke-width:0.68791667;paint-order:markers fill stroke;stroke:#915eff;stroke-opacity:1;stroke-dasharray:none"
           d="M 43.429011,7.3873781 C 53.532388,22.015751 51.264119,63.485039 30.914669,70.445651"
           id="path16822" /></g><g
         id="g16830"
         inkscape:transform-center-x="-8.686554"
         inkscape:transform-center-y="-31.738618"
         style="stroke:#915eff;stroke-opacity:1;fill:none;fill-opacity:0;stroke-width:0.68791667;stroke-dasharray:none;paint-order:markers fill stroke"><path
           style="color:#000000;fill:none;paint-order:markers fill stroke;stroke:#915eff;stroke-opacity:1;fill-opacity:0;stroke-width:0.68791667;stroke-dasharray:none"
           d="M 70.568359,33.580078 C 50.534438,51.817401 20.401384,50.211117 8.3066406,34.792969 L 7.265625,35.609375 c 12.719722,16.214859 43.644179,17.655593 64.193359,-1.050781 z"
           id="path16826" /><path
           style="color:#000000;fill:none;fill-opacity:0;stroke-width:0.68791667;paint-order:markers fill stroke;stroke:#915eff;stroke-opacity:1;stroke-dasharray:none"
           d="M 71.014206,34.069541 C 50.722635,52.541408 20.19273,51.017176 7.7854849,35.200657"
           id="path16828" /></g><g
         id="g16836"
         inkscape:transform-center-x="-8.686554"
         inkscape:transform-center-y="-31.738618"
         style="stroke:#915eff;fill:none;fill-opacity:0;stroke-width:0.68791667;paint-order:markers fill stroke"><path
           style="color:#000000;fill:#915eff;fill-opacity:1;stroke:none;-inkscape-stroke:none"
           d="M 62.269531,14.902344 C 53.834963,14.813003 41.442534,18.737571 30.763672,25.662109 20.084294,32.586981 11.088276,42.591121 10.113281,54.810547 l -0.02734,0.34375 2.005859,0.160156 0.02734,-0.34375 c 0.903427,-11.322489 9.37133,-20.897544 19.740234,-27.621094 10.368394,-6.723219 22.613989,-10.51985 30.388672,-10.4375 l 0.34375,0.0039 0.02148,-2.009766 z m -0.351562,0.720703 -0.0059,0.634765 c -8.009013,0.01535 -20.08593,3.807695 -30.427734,10.513672 -10.370571,6.724631 -18.92492,16.326336 -19.996094,27.802735 l -0.630859,-0.05078 C 11.95052,42.765948 20.668657,33.029348 31.138672,26.240234 41.579788,19.469859 53.70736,15.63543 61.917969,15.623047 Z"
           id="path16832" /><path
           style="color:#000000;fill:#915eff;fill-opacity:1;stroke:none;-inkscape-stroke:none"
           d="M 62.261719,15.5625 C 54.042422,15.47544 41.702405,19.358048 31.125,26.216797 20.547595,33.075546 11.724949,42.938169 10.773438,54.863281 l 0.685546,0.05469 C 12.386012,43.299701 21.02685,33.584802 31.498047,26.794922 41.969244,20.005042 54.262275,16.167284 62.255859,16.251953 Z"
           id="path16834" /></g><circle
         style="opacity:1;fill:#915eff;fill-opacity:1;stroke:none;stroke-width:0.706241;stroke-dasharray:none;stroke-opacity:1;paint-order:stroke markers fill"
         id="circle16838"
         cx="47.863529"
         cy="46.476337"
         r="5.5492425" /><circle
         style="opacity:1;fill:#915eff;fill-opacity:1;stroke:none;stroke-width:0.471172;stroke-dasharray:none;stroke-opacity:1;paint-order:stroke markers fill"
         id="circle16840"
         cx="38.996159"
         cy="65.157295"
         r="3.7021999" /><circle
         style="opacity:1;fill:#915eff;fill-opacity:1;stroke:none;stroke-width:0.292541;stroke-dasharray:none;stroke-opacity:1;paint-order:stroke markers fill"
         id="circle16842"
         cx="27.143963"
         cy="46.486237"
         r="2.298619" /><circle
         style="opacity:1;fill:#915eff;fill-opacity:1;stroke:none;stroke-width:0.292541;stroke-dasharray:none;stroke-opacity:1;paint-order:stroke markers fill"
         id="circle16844"
         cx="15.806648"
         cy="42.281986"
         r="2.298619" /><circle
         style="opacity:1;fill:#915eff;fill-opacity:1;stroke:none;stroke-width:0.594795;stroke-dasharray:none;stroke-opacity:1;paint-order:stroke markers fill"
         id="circle16846"
         cx="24.117582"
         cy="32.122047"
         r="4.673563" /><circle
         style="opacity:1;fill:#915eff;fill-opacity:1;stroke:none;stroke-width:0.441449;stroke-dasharray:none;stroke-opacity:1;paint-order:stroke markers fill"
         id="circle16848"
         cx="47.787144"
         cy="18.666477"
         r="3.4686542" /><circle
         style="opacity:1;fill:#915eff;fill-opacity:1;stroke:none;stroke-width:0.706241;stroke-dasharray:none;stroke-opacity:1;paint-order:stroke markers fill"
         id="circle16890"
         cx="47.863529"
         cy="46.476337"
         r="5.5492425" /><circle
         style="opacity:1;fill:#915eff;fill-opacity:1;stroke:none;stroke-width:0.471172;stroke-dasharray:none;stroke-opacity:1;paint-order:stroke markers fill"
         id="circle16892"
         cx="38.996159"
         cy="65.157295"
         r="3.7021999" /><circle
         style="opacity:1;fill:#915eff;fill-opacity:1;stroke:none;stroke-width:0.292541;stroke-dasharray:none;stroke-opacity:1;paint-order:stroke markers fill"
         id="circle16894"
         cx="27.143963"
         cy="46.486237"
         r="2.298619" /><circle
         style="opacity:1;fill:#915eff;fill-opacity:1;stroke:none;stroke-width:0.292541;stroke-dasharray:none;stroke-opacity:1;paint-order:stroke markers fill"
         id="circle16896"
         cx="15.806648"
         cy="42.281986"
         r="2.298619" /><circle
         style="opacity:1;fill:#915eff;fill-opacity:1;stroke:none;stroke-width:0.594795;stroke-dasharray:none;stroke-opacity:1;paint-order:stroke markers fill"
         id="circle16898"
         cx="24.117582"
         cy="32.122047"
         r="4.673563" /><circle
         style="opacity:1;fill:#915eff;fill-opacity:1;stroke:none;stroke-width:0.441449;stroke-dasharray:none;stroke-opacity:1;paint-order:stroke markers fill"
         id="circle16900"
         cx="47.787144"
         cy="18.666477"
         r="3.4686542" /></g></g></svg>
